<svg width="46" height="29" viewBox="0 0 46 29" fill="none" xmlns="http://www.w3.org/2000/svg">
<g clip-path="url(#clip0)">
<path d="M43.0199 9.39429L24.4247 9.34814C25.8844 8.35347 28.1563 6.56613 29.5284 5.45251C31.0151 4.24659 31.208 2.19777 30.0351 0.974422C28.8611 -0.252001 26.8989 -0.312502 25.582 0.752927C23.4165 2.51155 20.2667 4.81263 17.7498 6.0247C15.675 7.0245 13.9661 7.36597 11.8173 9.38301C11.5076 9.74294 11.2115 10.0711 10.9467 10.3849L10.9467 26.5006C11.2689 26.6319 11.5931 26.8442 11.956 27.0841C12.9767 27.7578 14.2456 28.5977 16.6603 28.6038L29.1822 28.6356C30.7295 28.6397 31.991 27.3989 31.9952 25.871C31.9963 25.2004 31.7554 24.5605 31.3123 24.0539C32.7501 23.9452 33.9001 22.7383 33.9032 21.2986C33.9053 20.51 33.5696 19.7645 32.9784 19.2364C34.6278 19.2405 35.3139 17.8131 35.316 16.7251C35.3181 16.0504 35.0751 15.4146 34.6435 14.9183L43.0335 14.9378C43.9291 14.9399 44.5985 14.4487 44.5985 14.4487C45.3627 13.9308 45.8163 13.09 45.8183 12.1732C45.8225 10.6453 44.5672 9.39839 43.0199 9.39429Z" fill="#F2F2F2"/>
<path d="M9.85351 26.7063L9.85352 9.68611C9.85352 8.85345 9.16747 8.17871 8.32086 8.17871L1.53336 8.17871C0.686751 8.17871 0.000701875 8.85345 0.000701838 9.6861L0.000701094 26.7063C0.000701058 27.539 0.68675 28.2137 1.53336 28.2137L8.32086 28.2137C9.16747 28.2148 9.85351 27.539 9.85351 26.7063ZM3.40905 25.1641C3.40905 24.3396 4.08884 23.671 4.92711 23.671C5.76538 23.671 6.44517 24.3396 6.44517 25.1641C6.44517 25.9885 5.76538 26.6571 4.92711 26.6571C4.08884 26.6561 3.40905 25.9885 3.40905 25.1641Z" fill="#F2F2F2"/>
</g>
<defs>
<clipPath id="clip0">
<rect x="45.8184" width="28.6364" height="45.8182" transform="rotate(90 45.8184 0)" fill="white"/>
</clipPath>
</defs>
</svg>
